<?xml version="1.0" encoding="utf-8"?>
<svg width="100%" height="100%" version="1.1" xmlns="http://www.w3.org/2000/svg">
<path d="M 0 112.5 L -50 47.882737381274566 Q -26.581445714968705 27.379007359193462 -6.077715692887601 50.79756164422476 Q 0.20563584737809215 44.502056578467275 6.5011409131355755 50.78540811873297 Q 23.262021939903114 31.421993569482225 42.625436489153856 48.18287459624977 Q 48.040956005953745 42.1056220556856 54.1182085465179 47.52114157248549 Q 74.94590315804348 24.435003082050127 98.03204164847884 45.2626976935757 Q 118.2066736395561 28.156884006426836 135.31248732670497 48.331515997504106 Q 147.0788255657746 36.24932770822916 159.16101385504953 48.015665947298785 Q 166.1580223528367 37.44220374738625 176.73148455274924 44.43921224517342 Q 195.9615465667019 23.209625371125142 217.19113344075018 42.439687385077804 Q 225.89817477671033 36.16415597544143 232.17370618634672 44.8711973114016 Q 256.49363831894607 28.22112424822224 273.1437113821254 52.541056380821544 Q 282.7246317017696 45.960830639835535 289.30485744275563 55.541750959479764 Q 301.9129553381814 42.1632119260635 315.29149437159765 54.77130982148924 Q 321.6813068726101 44.42122111853233 332.031395575567 50.81103361954476 Q 346.9069237444734 22.640465625729547 375.07749173828853 37.515993794635875 Q 378.6925524337365 29.95268959524791 386.2558566331245 33.56775029069591 Q 404.4126442154609 15.597667145842301 422.3827273603145 33.7544547281787 Q 433.0698244005481 26.12858797783546 440.6956911508913 36.81568501806903 Q 452.18447003415093 27.775881269953892 461.2242737822661 39.264660153213526 Q 479.2745102974302 27.571219100184273 490.9679513504595 45.62145561534841 Q 503.1962763093251 33.36621908548244 515.4515128391911 45.594544044348076 Q 528.7734180362617 31.312694955177925 543.0552671254318 44.634600152248474 Q 558.0507037002257 34.69560064096996 567.9897032115042 49.69103721576387 Q 590.0999509625356 35.21807811729515 604.5729100610043 57.32832586832656 Q 625.5720723231984 33.90087246669429 648.9995257248307 54.900034728888414 Q 663.7666475189855 31.34457391954632 687.3221083283275 46.11169571370104 Q 711.6490925460647 20.84987679457803 736.9109114651877 45.1768610123152 Q 757.8912258003279 14.435065672037112 788.633021140606 35.41538000717735 Q 808.720921146125 15.078811986316062 829.0574891669862 35.166711991834944 Q 850.273864153929 17.70416164909939 867.7364144966647 38.92053663604229 Q 874.7309712266231 32.96432385779802 880.6871840048674 39.958880587756454 Q 905.6154056461249 17.189139924100495 928.3851463097808 42.11736156535794 Q 951.6387508835169 21.321978013149746 972.4341344357251 44.57558258688588 Q 995.0703939659638 19.764218487740322 1019.8817580651094 42.40047801797898 Q 1042.400440273114 21.439993077205948 1063.3609252138872 43.958675285210745 Q 1077.3645230176562 30.543693432538596 1090.7795048703283 44.54729123630757 Q 1111.9614269967287 27.081063359792232 1129.427654873244 48.26298548619249 L 1122 112.5" fill="rgb(225,225,225)"/>
<path d="M 0 112.5 L -50 66.45373669330036 Q -39.53283555897421 59.40902061874779 -32.48811948442164 69.87618505977358 Q -12.862355047229356 50.80449514569828 6.209334866845932 70.43025958289057 Q 36.76929383643798 35.990294673948114 71.20925874538044 66.55025364354016 Q 100.62142005363631 35.59349600199 131.57817769518647 65.00565731024587 Q 156.96142650387463 38.208146964820884 183.7589368492996 63.59139577350904 Q 202.96893278250698 44.18663377890948 222.37369477710655 63.39662971211688 Q 257.95923843508166 35.2065492786528 286.1493188685457 70.79209293662788 Q 309.7745068650358 42.41500232051436 338.15159748114934 66.04019031700444 Q 345.44848538707726 55.75809638551229 355.7305793185694 63.054984291440235 Q 383.18367330490344 29.58334113694147 416.65531645940223 57.03643512327551 Q 431.33439766950966 47.54605147522835 440.8247813175568 62.22513268533578 Q 449.55915467642063 54.2139722699538 457.5703150918026 62.948345628817634 Q 488.874347872861 30.084990113748226 521.7377033879304 61.389022894806615 Q 543.7113973297215 44.733844148071995 560.3665760764561 66.70753808986305 Q 574.1742124229652 56.37849790653743 584.5032526062907 70.18613425304646 Q 615.872541801433 36.41128265571196 649.6473933987676 67.78057185085429 Q 679.1737127256267 35.54154432178814 711.4127402546928 65.06786364864725 Q 730.2929632555955 35.34277639008397 760.0180505141587 54.2229993909866 Q 792.6146173108152 18.456775802058807 828.380840899743 51.05334259871529 Q 842.1885728934965 38.37872775491224 854.8631877372995 52.18645974866571 Q 890.6581245382154 23.40621548052954 919.4383688063515 59.201152281445324 Q 944.4041615038485 37.03098732298409 966.5743264623097 61.99678002048109 Q 978.5048753213367 48.94560161649258 991.5560537253252 60.876150475519566 Q 1002.9454230075515 49.67775850736226 1014.1438149757088 61.06712778958851 Q 1024.5528649083114 51.43581016277939 1034.1841825351207 61.84486009538222 Q 1065.4663502699882 26.221875545026407 1101.0893348203442 57.504043279894084 Q 1123.815543777001 42.82717647738417 1138.492410579511 65.55338543404102 L 1122 112.5" fill="rgb(240,240,240)"/>
<path d="M 0 112.5 L -50 91.58617304785751 Q -33.56713643985641 80.81535719495349 -22.796320586952383 97.24822075509708 Q 8.789029611126917 66.45861918473518 39.57863118148882 98.04396938281448 Q 46.909209193049044 90.96540806562813 53.987770510235414 98.29598607718835 Q 90.03555181083937 53.84897072940315 134.48256715862456 89.8967520300071 Q 158.32530211744552 60.13605195345286 188.08600219399978 83.97878691227385 Q 220.47029222360888 53.80352766937655 250.6455514665062 86.18781769898568 Q 279.3272790842737 60.88750501828579 304.6275917649736 89.56923263605331 Q 338.72474502819574 58.6719024906337 369.62207517361537 92.76905575385584 Q 411.6796183394648 51.71380942426366 452.734864669057 93.77135259011311 Q 466.52639082347525 70.84594610977825 489.4517973038101 84.63747226419649 Q 530.766385621258 47.73754395546405 567.6663139299905 89.05213227291196 Q 601.8146451686431 53.507037217146575 637.3597402244086 87.65536845579932 Q 674.770883914273 50.913238370832545 711.5130139992398 88.32438206069696 Q 725.6321987594556 65.87464564167425 748.0819351784783 79.99383040189002 Q 760.8862204478362 67.61697415974182 773.2630766899844 80.4212594290997 Q 808.8452122966952 45.34831361687448 843.9181581089204 80.93044922358524 Q 887.8219456697526 46.29910870177409 922.4532861915637 90.2028962626063 Q 951.0930395723278 50.79453364371807 990.501402191216 79.43428702448212 Q 1005.1734469064223 64.75396425171576 1019.8537696791886 79.42600896692203 Q 1056.1988570425742 47.518366904121365 1088.1064991053747 83.86345426750677 Q 1102.225253316993 70.59123037426406 1115.4974772102357 84.70998458588235 Q 1149.2375436083078 52.32307050568352 1181.6244576885065 86.06313690375542 L 1122 112.5" fill="rgb(255,255,255)"/>
</svg>
