<?xml version="1.0" encoding="utf-8"?>
<svg version="1.2" baseProfile="tiny" id="Layer_1" xmlns="http://www.w3.org/2000/svg" xmlns:xlink="http://www.w3.org/1999/xlink"
	 x="0px" y="0px" viewBox="0 0 473.1 473.1" overflow="visible" xml:space="preserve">
<g>
	<polygon fill="#040000" points="115.4,215.5 115.4,257.6 146.9,236.5 	"/>
	<polygon fill="#040000" points="224,185 224,126.3 125.5,192 169.5,221.4 	"/>
	<polygon fill="#040000" points="347.6,192 249.1,126.3 249.1,185 303.6,221.4 	"/>
	<polygon fill="#040000" points="125.5,281.1 224,346.8 224,288.1 169.5,251.7 	"/>
	<polygon fill="#040000" points="249.1,288.1 249.1,346.8 347.6,281.1 303.6,251.7 	"/>
	<polygon fill="#040000" points="236.5,206.8 192.1,236.5 236.5,266.3 281,236.5 	"/>
	<path fill="#040000" d="M236.5,0C105.9,0,0,105.9,0,236.5c0,130.6,105.9,236.5,236.5,236.5c130.6,0,236.5-105.9,236.5-236.5
		C473.1,105.9,367.2,0,236.5,0z M382.8,281.1c0,0.6,0,1.1-0.1,1.6c0,0.2-0.1,0.4-0.1,0.5c-0.1,0.4-0.1,0.7-0.2,1.1
		c-0.1,0.2-0.1,0.4-0.2,0.6c-0.1,0.3-0.2,0.6-0.3,0.9c-0.1,0.2-0.2,0.4-0.3,0.6c-0.1,0.3-0.3,0.6-0.4,0.8c-0.1,0.2-0.2,0.4-0.4,0.6
		c-0.2,0.3-0.3,0.5-0.5,0.8c-0.1,0.2-0.3,0.4-0.4,0.5c-0.2,0.2-0.4,0.5-0.6,0.7c-0.2,0.2-0.3,0.3-0.5,0.5c-0.2,0.2-0.5,0.4-0.7,0.6
		c-0.2,0.1-0.4,0.3-0.6,0.4c-0.1,0-0.1,0.1-0.2,0.2l-133.7,89.1c-2.1,1.4-4.5,2.1-7,2.1c-2.4,0-4.9-0.7-7-2.1L95.9,291.6
		c-0.1,0-0.1-0.1-0.2-0.2c-0.2-0.1-0.4-0.3-0.6-0.4c-0.2-0.2-0.5-0.4-0.7-0.6c-0.2-0.2-0.3-0.3-0.5-0.5c-0.2-0.2-0.4-0.4-0.6-0.7
		c-0.1-0.2-0.3-0.4-0.4-0.5c-0.2-0.2-0.4-0.5-0.5-0.8c-0.1-0.2-0.2-0.4-0.4-0.6c-0.2-0.3-0.3-0.6-0.4-0.8c-0.1-0.2-0.2-0.4-0.3-0.6
		c-0.1-0.3-0.2-0.6-0.3-0.9c-0.1-0.2-0.1-0.4-0.2-0.6c-0.1-0.3-0.2-0.7-0.2-1.1c0-0.2-0.1-0.4-0.1-0.5c-0.1-0.5-0.1-1.1-0.1-1.6V192
		c0-0.6,0-1.1,0.1-1.6c0-0.2,0.1-0.4,0.1-0.5c0.1-0.4,0.1-0.7,0.2-1.1c0.1-0.2,0.1-0.4,0.2-0.6c0.1-0.3,0.2-0.6,0.3-0.9
		c0.1-0.2,0.2-0.4,0.3-0.6c0.1-0.3,0.3-0.6,0.4-0.8c0.1-0.2,0.2-0.4,0.4-0.6c0.2-0.3,0.3-0.5,0.5-0.8c0.1-0.2,0.3-0.4,0.4-0.5
		c0.2-0.2,0.4-0.5,0.6-0.7c0.2-0.2,0.3-0.3,0.5-0.5c0.2-0.2,0.5-0.4,0.7-0.6c0.2-0.1,0.4-0.3,0.6-0.4c0.1,0,0.1-0.1,0.2-0.2
		l133.7-89.1c4.2-2.8,9.7-2.8,13.9,0l133.7,89.1c0.1,0,0.1,0.1,0.2,0.2c0.2,0.1,0.4,0.3,0.6,0.4c0.2,0.2,0.5,0.4,0.7,0.6
		c0.2,0.2,0.3,0.3,0.5,0.5c0.2,0.2,0.4,0.4,0.6,0.7c0.2,0.2,0.3,0.4,0.4,0.5c0.2,0.2,0.4,0.5,0.5,0.8c0.1,0.2,0.2,0.4,0.4,0.6
		c0.2,0.3,0.3,0.5,0.4,0.8c0.1,0.2,0.2,0.4,0.3,0.6c0.1,0.3,0.2,0.6,0.3,0.9c0.1,0.2,0.1,0.4,0.2,0.6c0.1,0.3,0.2,0.7,0.2,1.1
		c0,0.2,0.1,0.4,0.1,0.5c0.1,0.5,0.1,1.1,0.1,1.6V281.1z"/>
	<polygon fill="#040000" points="357.7,257.6 357.7,215.5 326.2,236.5 	"/>
</g>
</svg>
