<?xml version="1.0" encoding="utf-8"?>
<!-- Generator: Adobe Illustrator 24.1.2, SVG Export Plug-In . SVG Version: 6.00 Build 0)  -->
<svg version="1.2" baseProfile="tiny"
	 xmlns="http://www.w3.org/2000/svg" xmlns:xlink="http://www.w3.org/1999/xlink" x="0px" y="0px" viewBox="0 0 121 118"
	 overflow="visible" xml:space="preserve">
<g>
	<path fill-rule="evenodd" fill="#191313" d="M61,0.4c-33.3,0-60.4,27-60.4,60.4c0,26.7,17.3,49.3,41.3,57.3c3,0.6,4.1-1.3,4.1-2.9
		c0-1.4-0.1-6.2-0.1-11.2c-16.8,3.7-20.3-7.1-20.3-7.1c-2.7-7-6.7-8.8-6.7-8.8c-5.5-3.7,0.4-3.7,0.4-3.7c6.1,0.4,9.3,6.2,9.3,6.2
		c5.4,9.2,14.1,6.6,17.6,5c0.5-3.9,2.1-6.6,3.8-8.1c-13.4-1.5-27.5-6.7-27.5-29.8c0-6.6,2.4-12,6.2-16.2c-0.6-1.5-2.7-7.7,0.6-16
		c0,0,5.1-1.6,16.6,6.2c4.8-1.3,10-2,15.1-2c5.1,0,10.3,0.7,15.1,2c11.5-7.8,16.6-6.2,16.6-6.2c3.3,8.3,1.2,14.5,0.6,16
		c3.9,4.2,6.2,9.6,6.2,16.2c0,23.2-14.1,28.3-27.6,29.8c2.2,1.9,4.1,5.5,4.1,11.2c0,8.1-0.1,14.6-0.1,16.6c0,1.6,1.1,3.5,4.1,2.9
		c24-8,41.3-30.6,41.3-57.3C121.3,27.4,94.3,0.4,61,0.4z"/>
	<path fill="#191313" d="M23.4,87.1c-0.1,0.3-0.6,0.4-1,0.2c-0.4-0.2-0.7-0.6-0.5-0.9c0.1-0.3,0.6-0.4,1-0.2
		C23.3,86.4,23.6,86.8,23.4,87.1L23.4,87.1z M22.7,86.5"/>
	<path fill="#191313" d="M25.9,89.8c-0.3,0.3-0.9,0.1-1.2-0.3c-0.4-0.4-0.5-1-0.2-1.3c0.3-0.3,0.8-0.1,1.2,0.3
		C26.1,89,26.2,89.5,25.9,89.8L25.9,89.8z M25.3,89.2"/>
	<path fill="#191313" d="M28.3,93.3c-0.4,0.3-1,0-1.3-0.5c-0.4-0.5-0.4-1.2,0-1.4c0.4-0.3,1,0,1.3,0.5C28.6,92.4,28.6,93,28.3,93.3
		L28.3,93.3z M28.3,93.3"/>
	<path fill="#191313" d="M31.5,96.6c-0.3,0.4-1,0.3-1.6-0.2c-0.5-0.5-0.7-1.2-0.3-1.5c0.3-0.4,1-0.3,1.6,0.2
		C31.7,95.6,31.9,96.3,31.5,96.6L31.5,96.6z M31.5,96.6"/>
	<path fill="#191313" d="M36,98.6c-0.1,0.5-0.8,0.7-1.5,0.5c-0.7-0.2-1.1-0.8-1-1.2c0.1-0.5,0.8-0.7,1.5-0.5
		C35.7,97.6,36.2,98.1,36,98.6L36,98.6z M36,98.6"/>
	<path fill="#191313" d="M41,98.9c0,0.5-0.6,0.9-1.3,0.9c-0.7,0-1.3-0.4-1.3-0.9c0-0.5,0.6-0.9,1.3-0.9C40.4,98.1,41,98.5,41,98.9
		L41,98.9z M41,98.9"/>
	<path fill="#191313" d="M45.6,98.2c0.1,0.5-0.4,1-1.1,1.1c-0.7,0.1-1.3-0.2-1.4-0.7c-0.1-0.5,0.4-1,1.1-1.1
		C44.8,97.4,45.5,97.7,45.6,98.2L45.6,98.2z M45.6,98.2"/>
</g>
</svg>
