<?xml version="1.0" encoding="utf-8"?>
<!-- Generator: Adobe Illustrator 24.1.2, SVG Export Plug-In . SVG Version: 6.00 Build 0)  -->
<svg version="1.2" baseProfile="tiny"
	 xmlns="http://www.w3.org/2000/svg" xmlns:xlink="http://www.w3.org/1999/xlink" x="0px" y="0px" viewBox="0 0 345.1 410.5"
	 overflow="visible" xml:space="preserve">
<g>
	<path fill="#010101" d="M44.2,172.4c-1.3-29.1,1.4-57.7,11-85.5c6-17.3,14.4-33.3,26.4-47.2c17.2-20,38.8-32.4,64.8-37.2
		c21.6-4,43.1-3.4,64.2,2.8c27,7.9,47.8,24.3,63.1,47.7c10.1,15.5,16.9,32.5,21.3,50.4c5.6,22.7,7.3,45.7,6.1,69
		c-15.4,4.5-31.2,7.9-47,10.6c-15.1,2.6-30.2,4.5-45.4,5.6c-16.9,1.3-33.7,2-50.7,1.3c-18.3-0.8-36.6-2.4-54.7-5.1
		C83.1,182,63.5,178,44.2,172.4z M172.8,126.3c-17.9,0.1-35.6,1.3-53,4.9c-6.3,1.3-12.6,2.9-18.5,5.5c-2.1,0.9-4.1,1.9-5.7,3.5
		c-2.1,2.1-2.1,3.5,0.2,5.3c1.4,1.1,3,2.1,4.6,3c11,6.4,22.7,10.9,34.9,14.4c16,4.6,32.3,6.8,48.9,5c20.4-2.2,39.6-8.3,57.8-17.8
		c2.5-1.3,5-2.8,7.3-4.6c2.2-1.8,2.3-3.4,0.3-5.4c-1.6-1.6-3.7-2.6-5.7-3.5c-5.9-2.6-12.2-4.2-18.5-5.5
		C207.9,127.7,190.4,126.5,172.8,126.3z M228.8,82.1c0.1-2.7-0.4-6.4-1.3-9.9c-1.5-6-4.1-11.4-8.6-15.7c-6.9-6.6-16-6.8-23.3-0.7
		c-2.9,2.4-5.1,5.3-6.8,8.6c-5.6,11.2-6.3,22.7-2.5,34.6c1.6,5.1,4.3,9.5,8.3,13c6.6,5.7,14.7,6,21.7,0.8c3.3-2.4,5.7-5.5,7.6-9.1
		C227.3,97.3,228.8,90.4,228.8,82.1z M161.2,84.4c0.1-3.7-0.4-7.7-1.5-11.7c-1.9-6.8-5-13-10.8-17.5c-7-5.4-15.3-5.1-21.9,0.6
		c-2.8,2.4-5.1,5.4-6.6,8.8c-6,13.5-5.6,26.8,1.3,39.9c2,3.8,4.8,6.9,8.4,9.2c6.2,4,13.3,3.7,19.2-0.7c2.8-2.1,4.9-4.6,6.6-7.6
		C159.7,99.1,161.2,92.2,161.2,84.4z"/>
	<path fill="#020101" d="M319.3,218.5c2.7,5.9,4.8,12.2,7,18.3c6.3,17.3,11.8,34.9,15.4,53.1c2.1,10.6,3.6,21.2,3.4,32
		c-0.1,3.3-0.4,6.5-1.2,9.7c-1.5,6.1-3.7,6.8-8.7,2.9c-2.9-2.3-5.4-5-7.8-7.9c-7.5-8.9-14-18.5-20.3-28.2c-0.6-0.9-0.9-2-2.2-2.7
		c-0.3,3.1-0.5,6-0.8,8.9c-2.1,16.7-8.3,31.8-17.4,45.8c-5.9,9.1-13,17.2-21.1,24.3c-0.5,0.4-0.9,0.9-1.3,1.3
		c-0.3,0.2-0.5,0.3-0.8,0.5c-21.9,18.1-47.4,27.3-75.4,29.8c-4.7,0.4-9.4,0.4-14.1,0.7c-0.8,0-1.6,0-2.4,0
		c-4.8-0.3-9.6-0.3-14.4-0.7c-13.6-1.3-26.9-4.1-39.7-9c-13.3-5.1-25.4-12.3-36.4-21.4c-6-5.4-11.7-11.1-16.7-17.6
		c-11.1-14.4-18.8-30.4-22.3-48.4c-0.9-4.7-1.4-9.5-1.6-14.6c-1.2,0.8-1.6,1.9-2.1,2.8c-6.5,10-13.1,19.8-20.9,28.9
		c-2.2,2.6-4.5,5.1-7.2,7.2c-0.5,0.4-1,0.8-1.5,1.1c-3.8,2.5-5.7,1.9-7-2.4c-1.7-5.4-1.7-10.9-1.6-16.5c0.5-14.5,3.4-28.7,7-42.7
		c4.8-18.7,11.3-36.8,18.2-54.7c0.1-0.3,0.3-0.5,0.4-0.8c12.4,3.7,24.8,6.9,37.4,9.7c4,0.9,8,1.4,11.9,2.7c-0.5,3.5-1,6.9-1.4,10.4
		c-1.9,19.1-2.3,38.3-0.2,57.4c1.4,13,4.5,25.6,9.9,37.6c11.8,26.3,31.2,44.1,59.1,52c16,4.6,32.4,5.1,48.8,2.5
		c15.7-2.5,30.2-8.3,42.8-18.3c15.5-12.2,25.5-28.1,31.6-46.6c4.4-13.1,6.3-26.7,7-40.4c0.9-18.3,0.1-36.5-2.7-54.6
		c0.4-0.2,0.7-0.4,1.1-0.4C287.3,227.2,303.4,223.2,319.3,218.5z"/>
	<path fill="#EB1923" d="M319.3,218.5c-15.9,4.7-32,8.7-48.2,11.9c-0.4,0.1-0.8,0.3-1.1,0.4c-0.8,0.1-1.6,0.1-2.4,0.3
		c-14.6,2.8-29.3,5.1-44,6.8c-15.8,1.8-31.6,3-47.5,2.9c-8.4,0-16.8,0.1-25.2-0.5c-2.4-0.2-2.4-0.1-2.5,2.2c0,0.6,0,1.2,0,1.8
		c0,16,0,32,0,48c0,3.2,0.2,3.1-2.8,3.3c-1.4,0.1-2.8,0.3-4.3,0.5c-12.3,1.1-24.6,0.6-36.8-0.7c-3.7-0.4-7.3-1.1-10.9-1.6
		c-1.5-0.2-2-0.8-1.8-2.2c0.1-0.7,0-1.4,0-2.2c0-17.4,0-34.9,0-52.3c0-0.8,0-1.6,0-2.5c0-0.9-0.4-1.3-1.3-1.4
		c-5.1-0.7-10-2.1-15.1-2.6c-3.9-1.3-7.9-1.9-11.9-2.7c-12.6-2.8-25.1-6-37.4-9.7c2.7-6.8,5.3-13.7,8.1-20.5
		c3.4-8.5,6.9-17,10.3-25.5c19.3,5.6,39,9.5,58.8,12.4c18.2,2.7,36.4,4.3,54.7,5.1c16.9,0.7,33.8,0,50.7-1.3
		c15.2-1.2,30.4-3.1,45.4-5.6c15.9-2.7,31.6-6.1,47-10.6c3.6,8.9,7.2,17.8,10.8,26.7c2.3,5.8,4.6,11.6,6.9,17.4
		C318.9,217.2,319.3,217.8,319.3,218.5z"/>
	<path fill="#F8AA07" d="M80.9,376.2c11,9.1,23.1,16.3,36.4,21.4c12.8,4.9,26.1,7.7,39.7,9c4.8,0.4,9.6,0.4,14.4,0.7
		c-5.6,0.8-11.2,1-16.8,1.4c-8.1,0.6-16.2,1-24.2,1.2c-18.1,0.6-36.3,1-54.4,0.1c-8.5-0.4-17-0.9-25.3-2.9c-1.2-0.3-2.4-0.7-3.5-1.2
		c-2.8-1.2-4-3.4-3.5-6.4c0.3-2.4,1.5-4.4,3.1-6.2c2-2.1,4.4-3.7,6.8-5.2c7.6-4.6,15.8-7.7,24.1-10.6C78.9,377.1,80,377,80.9,376.2z
		"/>
	<path fill="#F8AA07" d="M173.8,407.2c4.7-0.4,9.4-0.3,14.1-0.7c28.1-2.5,53.5-11.6,75.4-29.8c0.2-0.2,0.5-0.3,0.8-0.5
		c4.4,1.6,8.8,3.2,13.2,4.9c5.5,2.2,10.9,4.7,15.9,8c1.7,1.1,3.4,2.3,4.8,3.8c1.4,1.4,2.4,3,3,4.9c1.2,4-0.2,6.9-4.1,8.3
		c-4,1.4-8.1,2.1-12.3,2.5c-17.5,1.8-35,1.9-52.5,1.5c-8.6-0.2-17.2-0.4-25.8-0.7c-10.7-0.5-21.3-1.3-31.9-2
		C174.2,407.5,174,407.3,173.8,407.2z"/>
	<path fill="#F8AA07" d="M172.8,126.3c17.5,0.2,35.1,1.3,52.4,4.9c6.3,1.3,12.6,2.9,18.5,5.5c2.1,0.9,4.1,1.9,5.7,3.5
		c2,2,2,3.6-0.3,5.4c-2.2,1.8-4.7,3.2-7.3,4.6c-18.2,9.5-37.4,15.6-57.8,17.8c-16.6,1.8-32.9-0.4-48.9-5c-12.2-3.5-23.9-8-34.9-14.4
		c-1.6-0.9-3.2-1.9-4.6-3c-2.3-1.8-2.3-3.3-0.2-5.3c1.6-1.6,3.7-2.6,5.7-3.5c5.9-2.6,12.2-4.2,18.5-5.5
		C137.3,127.7,154.9,126.5,172.8,126.3z"/>
	<path fill="#FFFEFE" d="M228.8,82.1c0,8.3-1.5,15.2-4.9,21.7c-1.9,3.6-4.4,6.7-7.6,9.1c-7,5.2-15.1,4.9-21.7-0.8
		c-4.1-3.5-6.7-8-8.3-13c-3.8-11.8-3.1-23.4,2.5-34.6c1.7-3.3,3.9-6.2,6.8-8.6c7.3-6.1,16.4-5.9,23.3,0.7c4.5,4.3,7.1,9.7,8.6,15.7
		C228.4,75.7,228.9,79.4,228.8,82.1z M207.3,78.3c-6.6-0.1-12.2,2.4-16.5,7.4c-0.7,0.8-1.3,1.6-1.6,2.6c-0.3,1.4,0.3,2.8,1.5,3.4
		c1.2,0.6,2.1,0.2,3-0.6c1-0.9,1.9-1.8,3-2.6c4-2.9,8.4-3.5,13.1-2.3c1.7,0.4,3.2,1.2,4.8,2c2.3,1,3.9,0.3,5-1.9
		c1.1-2.4,0.6-4.1-1.7-5.4C214.6,79,211,78.4,207.3,78.3z"/>
	<path fill="#FFFEFE" d="M161.2,84.4c0,7.8-1.5,14.7-5.2,21c-1.7,3-3.9,5.5-6.6,7.6c-5.9,4.4-13,4.7-19.2,0.7
		c-3.6-2.3-6.4-5.4-8.4-9.2c-6.9-13.1-7.3-26.4-1.3-39.9c1.5-3.4,3.7-6.3,6.6-8.8c6.7-5.7,15-6,21.9-0.6c5.7,4.5,8.9,10.6,10.8,17.5
		C160.8,76.7,161.3,80.7,161.2,84.4z M155.3,86.9c0-4.1-1.5-8.1-3.8-10.5c-3.7-3.9-8.8-3.8-12.4,0.1c-4.6,5.2-4.6,14.7,0.2,19.8
		c3.8,4.1,9.2,3.9,12.8-0.4C154.4,93.3,155.2,90,155.3,86.9z"/>
	<path fill="#FFFEFE" d="M75.1,230.9c5.1,0.5,10.1,1.8,15.1,2.6c0.9,0.1,1.3,0.5,1.3,1.4c0,0.8,0,1.6,0,2.5c0,17.4,0,34.9,0,52.3
		c0,0.7,0.1,1.4,0,2.2c-0.1,1.4,0.4,2,1.8,2.2c3.7,0.4,7.3,1.2,10.9,1.6c12.3,1.3,24.5,1.8,36.8,0.7c1.4-0.1,2.8-0.4,4.3-0.5
		c3-0.2,2.8-0.1,2.8-3.3c0-16,0-32,0-48c0-0.6,0-1.2,0-1.8c0.1-2.3,0.1-2.4,2.5-2.2c8.4,0.6,16.8,0.5,25.2,0.5
		c15.9,0.1,31.7-1.1,47.5-2.9c14.8-1.7,29.4-3.9,44-6.8c0.8-0.2,1.6-0.2,2.4-0.3c2.8,18.1,3.6,36.3,2.7,54.6
		c-0.7,13.8-2.6,27.3-7,40.4c-6.2,18.5-16.2,34.4-31.6,46.6c-12.6,9.9-27,15.8-42.8,18.3c-16.4,2.6-32.7,2-48.8-2.5
		c-27.9-8-47.3-25.7-59.1-52c-5.4-12-8.5-24.6-9.9-37.6c-2.1-19.1-1.7-38.3,0.2-57.4C74.1,237.8,74.7,234.3,75.1,230.9z"/>
	<path fill="#020101" d="M207.3,78.3c3.7,0.1,7.3,0.8,10.7,2.5c2.4,1.2,2.9,3,1.7,5.4c-1,2.3-2.7,3-5,1.9c-1.6-0.7-3.1-1.5-4.8-2
		c-4.7-1.2-9.1-0.6-13.1,2.3c-1.1,0.8-2.1,1.7-3,2.6c-0.9,0.9-1.9,1.2-3,0.6c-1.2-0.6-1.8-2-1.5-3.4c0.2-1,0.9-1.8,1.6-2.6
		C195.1,80.6,200.6,78.2,207.3,78.3z"/>
	<path fill="#020101" d="M155.3,86.9c-0.2,3.1-0.9,6.4-3.2,9.1c-3.6,4.3-9,4.5-12.8,0.4c-4.7-5.1-4.8-14.7-0.2-19.8
		c3.6-4,8.7-4,12.4-0.1C153.9,78.9,155.3,82.8,155.3,86.9z"/>
</g>
</svg>
